<svg width="512" height="512" viewBox="0 0 512 512" fill="none" xmlns="http://www.w3.org/2000/svg">
<rect width="512" height="512" fill="url(#paint0_linear_2_2)"/>
<path d="M108.1 183.3C108.9 178.1 111.5 173.8 115.9 170.4C120.5 166.8 125.7 165 131.5 165H211.3C229.9 165 244.2 169.3 254.2 177.9C264.4 186.5 269.5 198.8 269.5 214.8C269.5 230.2 266.1 243.4 259.3 254.4C252.5 265.4 242.7 273.7 229.9 279.3V280.2C243.1 286.8 249.7 297.7 249.7 312.9C249.7 315.1 249.3 319 248.5 324.6L244.6 348C243 357.6 238.3 365 230.5 370.2C222.7 375.2 212.2 377.7 199 377.7L208.3 326.4C208.9 322.8 209.2 319.5 209.2 316.5C209.2 309.3 207.4 304 203.8 300.6C200.4 297.2 195.1 295.5 187.9 295.5H127.9L118.9 348C117.1 357.8 112.4 365.2 104.8 370.2C97.2 375.2 86.9 377.7 73.9 377.7L108.1 183.3ZM192.1 261.3C203.1 261.3 211.9 257.6 218.5 250.2C225.3 242.8 228.7 233.1 228.7 221.1C228.7 206.5 220.2 199.2 203.2 199.2H145L133.9 261.3H192.1ZM332.507 377.7C319.307 377.7 307.407 375.3 296.807 370.5C286.207 365.7 277.907 359.1 271.907 350.7C265.907 342.1 262.907 332.6 262.907 322.2C262.907 309.8 266.807 301.1 274.607 296.1C282.607 290.9 293.807 288.3 308.207 288.3C307.207 291.7 306.207 295.9 305.207 300.9C304.407 305.9 304.007 309.8 304.007 312.6C304.007 332.6 315.507 342.6 338.507 342.6C351.907 342.6 362.607 338.9 370.607 331.5C378.807 324.1 384.207 313.3 386.807 299.1L404.207 199.8H373.907C358.707 199.8 351.107 192 351.107 176.4C351.107 174.4 351.507 170.6 352.307 165H431.207C436.007 165 439.907 166.5 442.907 169.5C446.107 172.3 447.707 175.9 447.707 180.3C447.707 181.5 447.607 182.5 447.407 183.3L427.007 299.1C422.407 324.1 411.907 343.5 395.507 357.3C379.107 370.9 358.107 377.7 332.507 377.7Z" fill="black"/>
<defs>
<linearGradient id="paint0_linear_2_2" x1="256" y1="8.19564e-08" x2="261.5" y2="1248" gradientUnits="userSpaceOnUse">
<stop stop-color="#BEF264"/>
<stop offset="1" stop-color="#10B981"/>
</linearGradient>
</defs>
</svg>
